<svg xmlns="http://www.w3.org/2000/svg" xmlns:xlink="http://www.w3.org/1999/xlink" width="500" zoomAndPan="magnify" viewBox="0 0 375 374.999991" height="500" preserveAspectRatio="xMidYMid meet" version="1.0"><defs><clipPath id="id1"><path d="M 97.363281 171 L 257 171 L 257 270.230469 L 97.363281 270.230469 Z M 97.363281 171 " clip-rule="nonzero"/></clipPath><clipPath id="id2"><path d="M 127 105.980469 L 250 105.980469 L 250 262 L 127 262 Z M 127 105.980469 " clip-rule="nonzero"/></clipPath><clipPath id="id3"><path d="M 120 171 L 277 171 L 277 270.230469 L 120 270.230469 Z M 120 171 " clip-rule="nonzero"/></clipPath></defs><rect x="-37.5" width="450" fill="rgb(100%, 100%, 100%)" y="-37.499999" height="449.999989" fill-opacity="1"/><rect x="-37.5" width="450" fill="rgb(77.249146%, 88.238525%, 85.488892%)" y="-37.499999" height="449.999989" fill-opacity="1"/><rect x="-37.5" width="450" fill="rgb(100%, 100%, 100%)" y="-37.499999" height="449.999989" fill-opacity="1"/><rect x="-37.5" width="450" fill="rgb(77.249146%, 88.238525%, 85.488892%)" y="-37.499999" height="449.999989" fill-opacity="1"/><path fill="rgb(100%, 100%, 100%)" d="M 187.355469 26.613281 C 96.226562 26.613281 22.355469 98.976562 22.355469 188.238281 C 22.355469 277.5 96.226562 349.863281 187.355469 349.863281 C 278.480469 349.863281 352.355469 277.5 352.355469 188.238281 C 352.355469 98.976562 278.480469 26.613281 187.355469 26.613281 " fill-opacity="1" fill-rule="nonzero"/><g clip-path="url(#id1)"><path fill="rgb(99.21875%, 78.819275%, 23.139954%)" d="M 236.796875 183.769531 L 134.398438 183.769531 C 133.179688 183.769531 132.097656 183.019531 131.664062 181.878906 L 128.625 173.871094 C 128.171875 172.671875 127.023438 171.882812 125.742188 171.882812 L 101.015625 171.882812 C 99.035156 171.882812 97.566406 173.730469 98.015625 175.660156 L 120.082031 270.222656 L 256.96875 270.222656 Z M 236.796875 183.769531 " fill-opacity="1" fill-rule="nonzero"/></g><g clip-path="url(#id2)"><path fill="rgb(78.819275%, 88.62915%, 39.608765%)" d="M 127.058594 105.988281 L 249.734375 105.988281 L 249.734375 261.121094 L 127.058594 261.121094 Z M 127.058594 105.988281 " fill-opacity="1" fill-rule="nonzero"/></g><path fill="rgb(49.409485%, 85.099792%, 34.118652%)" d="M 139.136719 120.921875 L 174.777344 120.921875 L 174.777344 159.867188 L 139.136719 159.867188 Z M 139.136719 120.921875 " fill-opacity="1" fill-rule="nonzero"/><path fill="rgb(49.409485%, 85.099792%, 34.118652%)" d="M 184.335938 120.921875 L 237.613281 120.921875 L 237.613281 124.964844 L 184.335938 124.964844 Z M 184.335938 120.921875 " fill-opacity="1" fill-rule="nonzero"/><path fill="rgb(49.409485%, 85.099792%, 34.118652%)" d="M 184.335938 132.3125 L 237.613281 132.3125 L 237.613281 136.355469 L 184.335938 136.355469 Z M 184.335938 132.3125 " fill-opacity="1" fill-rule="nonzero"/><path fill="rgb(49.409485%, 85.099792%, 34.118652%)" d="M 184.335938 143.699219 L 237.613281 143.699219 L 237.613281 147.742188 L 184.335938 147.742188 Z M 184.335938 143.699219 " fill-opacity="1" fill-rule="nonzero"/><path fill="rgb(49.409485%, 85.099792%, 34.118652%)" d="M 184.335938 155.085938 L 237.613281 155.085938 L 237.613281 159.128906 L 184.335938 159.128906 Z M 184.335938 155.085938 " fill-opacity="1" fill-rule="nonzero"/><path fill="rgb(49.409485%, 85.099792%, 34.118652%)" d="M 139.136719 166.476562 L 237.609375 166.476562 L 237.609375 170.519531 L 139.136719 170.519531 Z M 139.136719 166.476562 " fill-opacity="1" fill-rule="nonzero"/><path fill="rgb(49.409485%, 85.099792%, 34.118652%)" d="M 139.136719 177.863281 L 237.609375 177.863281 L 237.609375 181.90625 L 139.136719 181.90625 Z M 139.136719 177.863281 " fill-opacity="1" fill-rule="nonzero"/><path fill="rgb(49.409485%, 85.099792%, 34.118652%)" d="M 139.136719 189.253906 L 237.609375 189.253906 L 237.609375 193.296875 L 139.136719 193.296875 Z M 139.136719 189.253906 " fill-opacity="1" fill-rule="nonzero"/><path fill="rgb(49.409485%, 85.099792%, 34.118652%)" d="M 139.136719 200.640625 L 237.609375 200.640625 L 237.609375 204.683594 L 139.136719 204.683594 Z M 139.136719 200.640625 " fill-opacity="1" fill-rule="nonzero"/><path fill="rgb(49.409485%, 85.099792%, 34.118652%)" d="M 139.136719 212.03125 L 237.609375 212.03125 L 237.609375 216.074219 L 139.136719 216.074219 Z M 139.136719 212.03125 " fill-opacity="1" fill-rule="nonzero"/><path fill="rgb(49.409485%, 85.099792%, 34.118652%)" d="M 139.136719 223.417969 L 237.609375 223.417969 L 237.609375 227.460938 L 139.136719 227.460938 Z M 139.136719 223.417969 " fill-opacity="1" fill-rule="nonzero"/><path fill="rgb(49.409485%, 85.099792%, 34.118652%)" d="M 139.136719 234.804688 L 237.609375 234.804688 L 237.609375 238.847656 L 139.136719 238.847656 Z M 139.136719 234.804688 " fill-opacity="1" fill-rule="nonzero"/><path fill="rgb(49.409485%, 85.099792%, 34.118652%)" d="M 139.136719 246.195312 L 237.609375 246.195312 L 237.609375 250.238281 L 139.136719 250.238281 Z M 139.136719 246.195312 " fill-opacity="1" fill-rule="nonzero"/><g clip-path="url(#id3)"><path fill="rgb(96.859741%, 65.489197%, 22.349548%)" d="M 179.511719 183.769531 L 181.648438 177.578125 C 182.605469 174.785156 180.535156 171.882812 177.589844 171.882812 L 147.265625 171.882812 C 145.269531 171.882812 143.535156 173.261719 143.082031 175.199219 L 120.910156 270.214844 L 257.792969 270.214844 L 276.285156 190.980469 C 277.148438 187.285156 274.347656 183.761719 270.554688 183.761719 L 179.511719 183.761719 Z M 179.511719 183.769531 " fill-opacity="1" fill-rule="nonzero"/></g></svg>